# xmcd
#
# Track frame offsets:
#	150
#	17595
#	34482
#	48700
#	62737
#	75512
#	92185
#	106030
#	122155
#	140762
#	154730
#	172297
#	187187
#	203772
#	222017
#	234567
#
# Disc length: 3368
#
# Revision: 1
# Processed by: cddbd v1.5.1PL0 Copyright (c) Steve Scherf et al.
# Submitted via: EasyCDDAExtractor 4.6.0.1
# Normalized: r0:TDELIM( - )
#
DISCID=e70d2610
DTITLE=Various Artist - The Very Best Of New Country - Disk 1
DYEAR=2001
DGENRE=Country
TTITLE0=Dixie Chicks - Ready To Run
TTITLE1=Vince Gill - Don't Let Our Love Start Slippin' Away
TTITLE2=Terri Clark - Better Things To Do
TTITLE3=Steve Wariner - Lynda
TTITLE4=Joe Diffie - Third Rock From The Sun
TTITLE5=Ricky Van Shelton - Backroads
TTITLE6=Tracy Lawrence - Time Marches On
TTITLE7=Reba McEntire - Somebody Should Leave
TTITLE8=Little Texas - My Love
TTITLE9=Mark Chesnutt - Brother Jukebox
TTITLE10=Collin Raye - Love, Me
TTITLE11=Rodney Crowell - I Couldn't Leave You If I Tried
TTITLE12=Paul Brandt - I Do
TTITLE13=Rosanne Cash - Runaway Train
TTITLE14=Clay Walker - Who Needs You Baby?
TTITLE15=Trace Adkins - (This Ain't) No Thinking Thing
EXTD=
EXTT0=
EXTT1=
EXTT2=
EXTT3=
EXTT4=
EXTT5=
EXTT6=
EXTT7=
EXTT8=
EXTT9=
EXTT10=
EXTT11=
EXTT12=
EXTT13=
EXTT14=
EXTT15=
PLAYORDER=
